<svg xmlns="http://www.w3.org/2000/svg" viewBox="0 0 464.68 310.85">
  <g data-name="圖層 2">
    <path d="M464.68 179.85c-4.19 0-7.52.26-10.79-.07-4.35-.43-5.32 1.48-5.3 5.46.14 24.84.08 49.67.08 74.5 0 15-.19 30 .09 45 .09 4.82-1.42 6.12-6.18 6.11q-149.74-.18-299.5-.09c-40.83 0-81.66-.09-122.49.06-4.78 0-6.19-1.32-6.16-6.18.18-39.33.07-78.66.05-118 0-6.76 0-6.7-6.87-6.82-7.84-.15-7.57 1.35-7.56-7.47 0-10.33.11-20.67 0-31 0-3.45.66-5.1 4.63-5.13 9.77-.05 9.81-.24 9.82-10.17q.06-60 0-120c0-4.29.75-6.08 5.69-6.08q211.5.2 423 0c4.33 0 5.66 1.1 5.64 5.58-.16 41.66 0 83.33-.19 125 0 4.65 1.31 6 5.88 5.83 10.23-.31 10.23-.08 10.23 10.34Zm-371.17 69H87c-20.83 0-41.66.12-62.49-.11-4.49 0-6.12 1-6 5.74.3 13.16.09 26.33.11 39.49 0 6 6.39 12.61 12.45 12.61q97 .07 194 .1c3.52 0 5-.88 5-4.76q-.21-45.24 0-90.48c0-3.24-.79-4.45-4.34-4.93-24.45-3.31-43.28-24.7-43.59-49.07-.33-25.84 17.36-47.28 42.67-51.29 4.22-.67 5.32-2.29 5.3-6.43-.18-29.66-.09-59.32-.08-89 0-6.88 0-6.89-6.68-6.89h-185c-6 0-12.22-1.45-16.55 5.42-1.46 2.32-3.24 3.94-3.22 7 .09 15.16 0 30.32.05 45.49 0 1.75.21 3.49.34 5.52h6.58c21 0 42 .14 63-.06 4.12 0 5.11 1.34 5.06 5.15-.18 13.5 0 27-.15 40.49-.06 4 .91 6.46 4.37 9a34 34 0 0 1 9.44 10.72c7.33 13.15 8.11 27.27 4.12 41.61-2.39 8.33-6.39 15.9-13.92 20.67-3.16 2-4.06 4.13-4 7.62.13 15.15.04 30.3.04 46.41Zm140.21-144.41c6.05 1.46 11.51 2.35 16.66 4.12 21.41 7.37 35.54 30.32 33.05 53.22-2.49 22.74-21.06 42.29-43.29 44.63-5.64.59-6.58 2.5-6.54 7.57q.35 43.25 0 86.49c0 4.78 1.27 6.28 6.11 6.24 28.83-.19 57.66-.07 86.49-.07h107c5 0 11.65-6.56 11.66-11.44 0-13.49-.08-27 0-40.49 0-4-.85-5.95-5.55-5.89-20.83.24-41.66 0-62.49.17-4.24 0-5.86-1-5.75-5.52.3-12.49-.15-25 .2-37.49.16-5.52-.28-10.06-6.06-12.57-1.42-.61-2.47-2.19-3.53-3.47-9-10.78-11.5-23.54-10.29-37 1.13-12.62 5.1-24.26 16.33-31.72 2.83-1.88 3.5-3.86 3.48-6.9-.1-13.5-.06-27 0-40.49 0-6.51 0-6.53 6.68-6.53h66.6c.14-3.08.36-5.56.36-8q0-21.75-.14-43.49c0-5.47-6.55-11.88-12-11.88q-96.74 0-193.47-.11c-4.51 0-5.58 1.39-5.56 5.69.17 30.16.09 60.33.09 90.49ZM18.61 203.73c0 12.47.15 24.26-.09 36-.08 4.11 1.14 5.46 5.34 5.42 20-.19 40-.23 60 0 4.57.06 5.57-1.52 5.56-5.71q-.15-81.23 0-162.45c0-4.44-1.34-5.67-5.66-5.63-20.16.19-40.32.08-60.48.11-1.43 0-2.85.26-4.23.39v40.64c7.94 0 15.43.17 22.91-.07 4.18-.13 5.42 1.47 5.4 5.54q-.19 40.5 0 81c0 3.63-1 5-4.81 4.87-7.62-.31-15.28-.11-23.94-.11ZM375.73 71.81v172.57a9.32 9.32 0 0 0 2.13.58c21.17 0 42.33 0 63.49.12 3.17 0 3.49-1.88 3.49-4.22v-37.13c-8 0-14.94-.2-21.9.08-4 .15-5.61-.94-5.58-5.23q.22-40.49 0-81c0-4 1.49-5.26 5.3-5.16 7.14.19 14.28 0 21.7 0V71.81Zm-141.62 37.73v93.1c13.89 1.17 31.19-8.54 38.89-22.37 9.46-17 9.29-34.14-1.64-50.44-8.67-12.91-21.05-19.68-37.25-20.29Zm-4.44.09c-15.67 1.18-27.67 8.11-35.86 20.77-10.43 16.21-10.76 33.33-1 50 8.07 13.75 20.6 20.93 36.84 22.6Zm-186.85 7c-7.31 0-14.12.07-20.92 0-2.81 0-3.29 1.47-3.29 3.78q.06 37.71 0 75.42c0 2.9 1.18 3.81 3.85 3.77 5.33-.07 10.67-.22 16 0 3.82.19 4.79-1.33 4.77-4.95-.12-24.65-.05-49.29-.06-73.93-.02-1.07-.17-2.21-.35-4.05Zm378.8.27v77.91c0 2-.69 4.66 2.77 4.68h20.06v-82.55ZM94 124.14v68.06c20.52-12.05 20.58-55.4 0-68.06Zm277-.92c-14.34 11.32-16.68 25.71-15.32 41.07 1 11 4.36 21.25 15.32 28.12Zm89.84 17.37c-3.3 0-5.78.14-8.24 0-3.11-.22-4 1.19-4 4.11.12 7.79 0 15.58 0 23.38 0 8.27.75 9 9.09 7.85 1.14-.16 2.94-1.82 3-2.81.23-10.62.15-21.21.15-32.53ZM14.49 158.45c0-4.5-.13-9 0-13.5.14-3.56-1.45-4.6-4.8-4.42-3 .16-5.66-.16-5.59 4.19q.24 13.75 0 27.5c-.07 4.23 2.69 3.71 5.38 3.83 3 .12 5.26-.11 5-4.1-.17-4.49.01-8.95.01-13.5Z" data-name="圖層 1" style="fill:#fff"/>
  </g>
</svg>