<svg xmlns="http://www.w3.org/2000/svg" viewBox="0 0 188.42 171.44"><defs><style>.cls-1{fill:#1a355f;stroke:#231815;stroke-width:0.22px;}.cls-1,.cls-10{stroke-miterlimit:10;}.cls-1,.cls-12,.cls-13,.cls-2,.cls-3,.cls-4,.cls-5,.cls-6,.cls-7,.cls-8{fill-rule:evenodd;}.cls-2{fill:#103c5d;}.cls-3{fill:#00a0e9;}.cls-4{fill:#e60012;}.cls-11,.cls-5{fill:#fff;}.cls-6,.cls-9{fill:#abcd03;}.cls-7{fill:#fede50;}.cls-8{fill:#f08300;}.cls-10{fill:none;stroke:#fff;}.cls-12{fill:#b5b5b6;}.cls-13{fill:#263039;}</style></defs><g id="圖層_2" data-name="圖層 2"><g id="圖層_1-2" data-name="圖層 1"><path class="cls-1" d="M85.68,1.16c19.58-4.68,39,6.76,43.56,25.56S121.54,64.66,102,69.41,62.86,62.64,58.39,43.78,66.1,5.91,85.68,1.16Z"/><polygon class="cls-2" points="50.62 135.07 23.11 149.47 36.14 154.44 32.69 167.91 49.68 158.19 55.08 141.56 50.62 135.07"/><path class="cls-3" d="M29.45,149s18.14-9.43,22-10.72l7.49,12s-20.23,11.16-22.9,13L39,152.93Z"/><path class="cls-2" d="M34.06,148.76S49.25,141,52.49,139.9l5.69,8.93S42,157.32,39.74,158.91l2.09-7.49Z"/><polygon class="cls-3" points="46.3 138.68 43.78 150.48 53.42 144.94 52.63 135.58 46.3 138.68"/><polygon class="cls-2" points="47.66 139.61 45.79 148.25 53.64 144.07 51.98 137.67 47.66 139.61"/><polygon class="cls-2" points="48.82 134.86 44.93 136.66 44.5 139.47 49.82 136.23 48.82 134.86"/><polygon class="cls-2" points="138.24 135.29 165.74 149.69 152.71 154.59 156.24 168.05 139.25 158.33 133.78 141.77 138.24 135.29"/><path class="cls-3" d="M159.41,149.26s-18.15-9.5-22-10.8l-7.56,11.95s20.3,11.16,22.89,13l-2.88-10.36Z"/><path class="cls-2" d="M154.8,148.9s-15.19-7.78-18.43-8.78L130.68,149s16.2,8.5,18.43,10.08l-2-7.49Z"/><polygon class="cls-3" points="142.63 138.82 145.37 151.06 135.43 145.08 136.22 135.72 142.63 138.82"/><polygon class="cls-2" points="141.19 139.75 143.06 148.4 135.22 144.22 136.87 137.81 141.19 139.75"/><polygon class="cls-2" points="140.04 135.07 143.93 136.8 144.36 139.68 139.03 136.37 140.04 135.07"/><path class="cls-2" d="M93.89,34.49h0c-.36.51-10.37,12.89-54.65,14l-.36,7.2H30.1S27.86,161.21,93.89,171.44h0c66-10.23,63.72-115.78,63.72-115.78l-9.15-.07V48.46c-44.2-1.08-54.21-13.54-54.57-14Z"/><path class="cls-4" d="M93.89,37.8h0c-.36.44-9.79,12.24-51.55,13.25l-.29,6.84H33.7S31.61,158,93.89,167.69h0C156,158,154,57.89,154,57.89l-8.64-.07V51.05C103.61,50,94.25,38.24,93.89,37.8Z"/><path class="cls-5" d="M94,41.62h-.07c-.29.43-9.15,11.66-48.31,12.67l-.29,6.48H37.44s-1.94,95.4,56.45,104.69H94c58.32-9.29,56.38-104.69,56.38-104.69l-8.07-.07-.07-6.41c-39.1-1-47.95-12.24-48.24-12.67Z"/><path class="cls-2" d="M94,47.24h0c-.29.43-8.57,11-45.14,12l-.22,6.12H41.33S39.53,155.81,94,164.6h0c54.43-8.79,52.56-99.22,52.56-99.22L139,65.31V59.26c-36.5-1-44.71-11.59-45-12Z"/><path class="cls-6" d="M54.14,62.72s-1.72,4.75-9,7.63l6-.79s-.36,2.66-4.46,4.39c0,0,5.18-.29,7-4.75l5.9-.87-8.28.07A9.12,9.12,0,0,0,54.14,62.72Z"/><path class="cls-7" d="M54.65,63.22a5.73,5.73,0,0,0,2.45,4.25h3.16S57.46,66.89,54.65,63.22Z"/><path class="cls-8" d="M55.94,63.72l1.23,1.16A6.1,6.1,0,0,0,59,61.71C58.68,62.14,57.53,63.87,55.94,63.72Z"/><path class="cls-4" d="M59,60s.14,4,6.41,8.35H62.14s1.44,5.11,9,6.77c0,0-5.69-2.74-5.84-5.76h6.84C67.82,68.26,61.49,64.73,59,60Z"/><path class="cls-3" d="M50.26,74h4a9.73,9.73,0,0,1,8.78-1.8,7.91,7.91,0,0,0-2.45-.79C57.17,70.78,54.22,71.43,50.26,74Z"/><polygon class="cls-2" points="0 91.3 94.25 91.59 188.42 91.3 188.42 98.36 170.71 112.11 170.71 125.72 158.83 134.21 94.39 134.35 94.39 134.35 94.25 134.35 94.1 134.35 94.1 134.35 29.52 134.21 17.71 125.72 17.71 112.11 0.07 98.36 0 91.3"/><polygon class="cls-4" points="181.01 94.75 94.39 94.61 94.39 94.61 94.25 94.61 94.1 94.61 94.1 94.61 7.42 94.75 7.42 98.14 22.54 109.88 22.54 123.48 31.97 129.89 94.1 129.96 94.1 129.96 94.25 129.96 94.39 129.96 94.39 129.96 156.46 129.89 165.89 123.48 165.89 109.88 181.01 98.14 181.01 94.75"/><polygon class="cls-5" points="176.11 96.84 94.39 96.7 94.39 96.7 94.25 96.7 94.1 96.7 94.1 96.7 12.31 96.84 25.49 108.94 25.56 122.33 33.34 127.08 94.18 127.08 94.25 127.08 94.32 127.08 155.02 127.08 162.86 122.33 162.94 108.94 176.11 96.84"/><polygon class="cls-2" points="170.14 99.44 94.39 99.22 94.39 99.22 94.25 99.22 94.03 99.22 94.03 99.22 18.29 99.44 28.8 108.65 28.66 121.32 34.7 124.85 94.18 124.78 94.32 124.78 153.72 124.85 159.77 121.32 159.62 108.65 170.14 99.44"/><path class="cls-9" d="M122.76,121.68v-4.82h4.61v4.82Zm0-7.27v-4.82h.58v4.82Zm0-7.27v-4.82h.58v4.82Zm18.43,0h10.23v-4.82H136v19.36h15.41v-4.82H141.19ZM36.36,102.32v4.82h5.11v14.54h5.11V107.14h5.19v-4.82Zm86.4,0v4.82H113v2.45h9.72v4.82H113v7.27h-5V102.32Zm0,14.54h-.58v4.82h.58v-4.82Zm-67,0v4.82h5.11v-4.82Zm18.94-9.72H85v-4.82H69.55v19.36H85v-4.82H74.74v-9.72Zm19.44,9.72v4.82h5.11v-4.82Zm21.38-14.54h0Z"/><path class="cls-10" d="M36.36,102.32v4.82h5.11v14.54h5.11V107.14h5.19v-4.82ZM55.8,116.86v4.82h5.11v-4.82Zm18.94-9.72H85v-4.82H69.55v19.36H85v-4.82H74.74v-9.72Zm19.44,9.72v4.82h5.11v-4.82Zm29.16-9.72v-4.82H108v19.36h5v-7.27h10.3v-4.82H113v-2.45Zm-7.78-4.82h0Zm6.62,14.54v4.82h5.19v-4.82Zm19-9.72h10.23v-4.82H136v19.36h15.41v-4.82H141.19Z"/><polygon class="cls-5" points="42.98 91.44 145.15 91.44 145.44 90.08 42.48 90.29 42.98 91.44"/><polygon class="cls-5" points="56.16 135.44 133.06 135.44 133.34 134.28 55.8 134.28 56.16 135.44"/><polygon class="cls-5" points="76.03 70.35 73.87 77.04 66.74 76.97 72.5 81.22 70.06 88.64 75.96 83.88 81.94 88.92 79.49 81.29 85.1 77.11 78.19 77.04 76.03 70.35"/><polygon class="cls-8" points="75.96 73.3 74.45 77.91 69.62 77.91 73.51 80.79 71.86 85.83 75.96 82.59 79.99 86.04 78.34 80.86 82.22 77.98 77.47 77.91 75.96 73.3"/><path class="cls-11" d="M75.74,81.87v-.58c.08,0,.15,0,.15-.07s.07-.14.07-.29V79.49c-.07-.14-.14-.14-.22-.21v-.51h.08a.26.26,0,0,1,.21.07c.07,0,.15.08.22.15s.07.21.07.29.07.21.07.28v.72a2.92,2.92,0,0,1-.14,1.23c-.07.29-.22.36-.51.36Zm2.31,0H76.68c.07-.29.07-.51.14-.72a2.92,2.92,0,0,1,.44-.79c.14-.22.21-.36.28-.44v-.5c-.07-.07-.07-.07-.14-.07s-.14,0-.14.07-.08.22-.08.36l-.43-.07c0-.22.07-.43.07-.58a3.15,3.15,0,0,0,.22-.29.56.56,0,0,1,.36-.07.66.66,0,0,1,.36.07.4.4,0,0,1,.14.29,1.14,1.14,0,0,1,.08.51,1,1,0,0,1-.08.5c0,.22-.14.36-.28.58a1.07,1.07,0,0,1-.15.21c-.07.07-.07.15-.14.22h.72Zm-3.53-3.1v3.1h-.43V79.78a1,1,0,0,1-.22.29.9.9,0,0,1-.29.21v-.72a.56.56,0,0,0,.36-.36,1.71,1.71,0,0,0,.22-.43Zm1.22,0v.51h0c-.07,0-.07.07-.14.21v1.59a.87.87,0,0,0,.14.21h0v.58h0a.42.42,0,0,1-.28-.07c-.08-.15-.15-.22-.22-.36s-.07-.29-.07-.51v-.65a2.9,2.9,0,0,1,.14-1.22A.39.39,0,0,1,75.74,78.77Z"/><polygon class="cls-5" points="95.4 70.42 93.17 77.19 86.11 77.11 91.8 81.36 89.35 88.78 95.33 84.03 101.23 89.07 98.78 81.44 104.4 77.26 97.49 77.19 95.4 70.42"/><polygon class="cls-8" points="95.33 73.44 93.82 78.05 88.92 77.98 92.81 80.93 91.15 85.97 95.26 82.73 99.29 86.19 97.63 80.93 101.52 78.12 96.77 78.05 95.33 73.44"/><path class="cls-11" d="M96.7,81.8v-.51h0c.07,0,.07,0,.14-.07a.45.45,0,0,0,.07-.29.56.56,0,0,0-.07-.36c-.07-.07-.07-.07-.14-.07V80h0c.07,0,.07,0,.14-.08s.07-.14.07-.21a.32.32,0,0,0-.07-.22c-.07-.07-.07-.14-.14-.14v-.43a.44.44,0,0,1,.43.21.64.64,0,0,1,.14.51.57.57,0,0,1-.07.36c0,.07-.07.14-.14.21a.39.39,0,0,1,.21.29.93.93,0,0,1,.07.43.54.54,0,0,1-.07.36c0,.15-.07.29-.14.29a.15.15,0,0,1-.15.14.38.38,0,0,1-.28.08Zm0-2.88v.43h0c-.08,0-.08.07-.15.07v.5c.07.08.07.08.15.08v.5h0c-.08,0-.08,0-.15.07a3.29,3.29,0,0,0-.07.36c0,.07.07.22.07.29s.07.07.15.07v.51c-.15,0-.29,0-.36-.08a1.18,1.18,0,0,1-.22-.36c0-.14-.07-.28-.07-.43a.93.93,0,0,1,.07-.43c.07-.07.14-.22.22-.29-.08-.07-.15-.14-.15-.21a.57.57,0,0,1-.07-.36,1.38,1.38,0,0,1,.14-.58.56.56,0,0,1,.44-.14ZM95.11,81.8v-.51l.07-.07c.08-.07.08-.14.08-.29a1.25,1.25,0,0,0,.07-.57,5.67,5.67,0,0,0-.07-.72c-.08-.15-.08-.22-.15-.22v-.5h0a.45.45,0,0,1,.29.07l.14.14c0,.07.08.15.08.22a.54.54,0,0,1,.07.29c0,.21.07.43.07.72a3.64,3.64,0,0,1-.14,1.08C95.47,81.65,95.33,81.8,95.11,81.8Zm-1.29-2.88v2.8h-.44V79.85a.9.9,0,0,1-.21.29c-.07,0-.15.07-.22.14v-.64c.15-.08.22-.22.36-.29a1.11,1.11,0,0,0,.15-.43Zm1.29,0v.5h0c-.07,0-.14.07-.14.22a1.65,1.65,0,0,0-.07.72,1.87,1.87,0,0,0,.07.72c0,.14.07.21.14.21h0v.51h0c-.14,0-.29,0-.36-.08a.54.54,0,0,1-.14-.36,4,4,0,0,1-.15-.43v-.57a3.77,3.77,0,0,1,.15-1.16A.54.54,0,0,1,95.11,78.92Z"/><path class="cls-2" d="M143.28,160.35l-4.61,9.93s-10.22-8.85-19.37-10.36l2.31-3,16.41.15Z"/><polygon class="cls-5" points="124.7 134.93 124.7 147.96 117.36 155.45 117.29 134.86 124.7 134.93"/><path class="cls-2" d="M45.58,160.2l4.68,9.87s10.15-8.79,19.29-10.3l-2.23-3L50.83,157Z"/><polygon class="cls-5" points="124.49 134.79 124.56 147.82 117.14 155.31 117.07 134.72 124.49 134.79"/><polygon class="cls-5" points="77.54 134.57 77.54 159.91 84.89 163.01 84.96 134.5 77.54 134.57"/><polygon class="cls-5" points="111.1 134.79 111.1 159.48 103.82 163.08 103.75 134.72 111.1 134.79"/><polygon class="cls-5" points="63.29 134.79 63.22 147.82 70.63 155.31 70.63 134.72 63.29 134.79"/><polygon class="cls-5" points="64.15 134.79 64.15 147.82 71.5 155.31 71.57 134.72 64.15 134.79"/><path class="cls-3" d="M43.49,150.48c23.25-21.38,78.84-21.16,102.09.15,0,0-3,5.83-7.48,15.69-19.44-17.28-67.54-17.28-87,0C46.58,156.46,43.49,150.48,43.49,150.48Z"/><path class="cls-2" d="M45.94,151.06c25.77-20.09,75.6-18.29,97.48.36,0,0-1.8,3-6.12,11.52-20.52-14.9-64.22-16.27-85.32,0Z"/><path class="cls-9" d="M117.22,149.33v-.79a1.15,1.15,0,0,0,.36.5,1.67,1.67,0,0,0-.36.29Zm0-3.31v-1a5.19,5.19,0,0,1,.36-.5,3.84,3.84,0,0,1,.36.5c.14.15.14.22.14.29h-.14c-.08,0-.08.07-.15.14l-.36.36-.21.22Zm0-2v-.79l.21.07c.36.08.72.08,1.08.15a1.55,1.55,0,0,0-.07.43c-.07.29-.07.43-.14.5a6.16,6.16,0,0,0-1-.36Zm0-1.72a2,2,0,0,1,.28.43,1.37,1.37,0,0,1,.36.65l.51-.44a3.82,3.82,0,0,0-.87-1.22l-.28.22Zm0-.36v.36l-.22-.22.22-.14Zm0,1.29-.8-.21.15-.72a2,2,0,0,1,.29-.72c.07,0-.08-.08-.29-.22s-.36-.07-.58-.07a2.65,2.65,0,0,1-.14.79l-.15.79-.93-.21c-.22-.08-.43-.08-.65-.15v.87c.22,0,.36.07.5.07l.94.21-.43,2.52-.51,2.52c0,.15-.07.22-.14.15a.8.8,0,0,1-.36-.07v.86h.72c.29-.07.43-.36.5-.79l.36-2.09a7,7,0,0,0,1.3,2.88.88.88,0,0,1,.22-.29v-.79a5.1,5.1,0,0,1-.8-1.66,15.14,15.14,0,0,1-.21-2.8l.07-.29.94.21v-.79Zm0,1.8v1l-.44.43-.5-.43a6.43,6.43,0,0,0,.94-1Zm-3.1,2.52v-.79l.29-.14c.07,0,.21-.08.29-.08l.07.72a2.32,2.32,0,0,1-.65.29Zm0-1.65v-1.95l.14-.07a9.81,9.81,0,0,1,.36.94c.08.36.15.64.22.86Zm0-3.39v.87a.83.83,0,0,0-.43-.08,1.31,1.31,0,0,1,.07-.43,2,2,0,0,0,.07-.5c.15.07.22.07.29.14Zm0,1.44v1.95h0a4.55,4.55,0,0,0-.43-1.8l.43-.15Zm0,2.81c-.43.22-.72.29-.94.43l.08-.79-1,.14.36-1.8.36.15a2.66,2.66,0,0,1,.43.07,1,1,0,0,0,.07-.43,1.32,1.32,0,0,0,.07-.36.91.91,0,0,0-.43-.07l-.36-.15.29-1.73.5.15c.15,0,.29.07.44.07a.87.87,0,0,0,.07-.36,2,2,0,0,0,.07-.5c-.29,0-.5-.08-.65-.08l-.57-.14-.65-.14-.65-.22a1.28,1.28,0,0,1-.07.43,2.08,2.08,0,0,0-.07.43.81.81,0,0,0,.43.08l.5.14-.36,1.73-.43-.07c-.14-.08-.29-.08-.36-.15a2.62,2.62,0,0,0-.14.43c0,.29-.08.44,0,.44a.57.57,0,0,1,.36.07l.43.07-.36,2.09h-.15a5,5,0,0,1-.86.07v.86c.14,0,.43-.07.65-.07.86-.14,1.58-.29,2-.36a7.67,7.67,0,0,1-.72.29l.22.86c.43-.21.94-.5,1.44-.79v-.79Zm0,2v.86a1.83,1.83,0,0,1-.5-.14,2,2,0,0,0-.08-.87,3.8,3.8,0,0,0,.58.15Zm-7-.8v-.86c.28.07.57.14,1,.22,1,.14,1.66.21,1.88.21a7.39,7.39,0,0,0-.36.79l-1.66-.21a2.75,2.75,0,0,1-.86-.15Zm0-2.66v-3l1.8.21.21-1.58-1.94-.22h-.07v-.86l.14.07,1.37.15a8.88,8.88,0,0,0,1.29.07.07.07,0,0,1,.08.07c-.08.29-.08.58-.15.79l-.07.87c-.07.57-.07,1.15-.14,1.58,0,.07,0,.07-.08.07a8.16,8.16,0,0,0-1.15-.21l-1.15-.15-.14,1.3,1.29.14c.36.07.79.07,1.3.15a2.08,2.08,0,0,1-.07.43c0,.29,0,.43-.08.5a3.43,3.43,0,0,0-1.22-.21Zm0-5.4v.86l-1.88-.21-.14,1.58,2,.22v3h-.08l-.21,1.73c.07,0,.14.07.29.07V148a5.87,5.87,0,0,1-1.16-.43,3,3,0,0,1-1.36-1.73,4.23,4.23,0,0,1-1.3,1.88,2.43,2.43,0,0,0-.43-.65,4.8,4.8,0,0,0,1.15-1.59,9,9,0,0,0,.58-1.94c.21.07.36.14.57.22l.22.21c0,.07,0,.07-.07.15s-.08.07-.15.21-.07.43-.14.58a2.82,2.82,0,0,0,1.08,1.8l.43-3.53-1.15-.14a3.26,3.26,0,0,0-1.15-.08v-.07c0-.14.07-.36.07-.65a.24.24,0,0,1,.07-.14l.07-.86a12.63,12.63,0,0,0,.07-1.59l.08-.07a4.26,4.26,0,0,0,1.36.22l1.16.14Zm-7,7.2v-.58h.22l.07-.5h-.29v-.58h.29v-.57h-.29v-.58h1.08v.07c0,.22-.07.44-.07.72v2.31a1,1,0,0,1-.43.07,1.32,1.32,0,0,0-.36-.07v-.29Zm0-3.17v-.57H101l.07-1.3h-.94v-.58l1.59.08-.08,1.22V144a8.41,8.41,0,0,0-1.36-.07Zm0-.57a3.69,3.69,0,0,0,.22-.51c.07,0,.07-.07.14-.14v-.15c.07,0,.07-.07.15-.07h.07c0-.07-.07-.14-.22-.21a3.88,3.88,0,0,0-.36-.15v1.23Zm0-2.31h.29v-.36a6.64,6.64,0,0,0,1.8,1.08,6.52,6.52,0,0,1,.43-.72,9.6,9.6,0,0,1-1.73-.86,9.15,9.15,0,0,1-.79-.65Zm0-1.51v1.51H98.93v-.57h1.15a13.74,13.74,0,0,1-1-1c-.07.07-.14.14-.14.21v-.86h.43a7.36,7.36,0,0,0,.79.72Zm0,1.94v.58h-.86l-.07,1.3h.93v.57H98.93v-2.45Zm0,.65-.07-.07-.43,1.08.5.22h0v-1.23Zm0,2.16v.58H98.93v-.58h1.22Zm0,1.15V146L98.93,146h0v-.58h0l1.22.07Zm0,1.08v.58H98.93v-.58Zm-1.22-7.7v.86a9.25,9.25,0,0,1-.94.72l.94.08v.57H97.85v-1.37a4.36,4.36,0,0,0,.86-.86Zm0,2.66v2.45l-1.08-.07v-.58l.79.08.07-1.3-.86-.07h0v-.58a3.87,3.87,0,0,0,.93.07Zm0,2.81v.58H97.85v-.58h1.08Zm0,1.08V146H97.85v-.58Zm0,1.15v.58H97.85v-.65l1.08.07Zm-1.08-3.24.43-.14a4.32,4.32,0,0,0-.43-1.08v1.22Zm0-3.6v1.37H97.7v-.43a8.45,8.45,0,0,1-1.94,1.08,3.46,3.46,0,0,0-.36-.72,6.32,6.32,0,0,0,1.87-.94,3.05,3.05,0,0,1,.58-.36Zm0,1.73a8.94,8.94,0,0,1-1.44-.07c-.07,0-.07,0-.07.07v2.45h1.51v-.58h-.94L97,142h.87v-.58Zm0,.72v1.15H97.7a3.15,3.15,0,0,0-.14-.5,1.4,1.4,0,0,0-.22-.5l.51-.15Zm0,2.16v.58h-.43v.5h.43V146h-.43v.5h.43v.65h-.51v.22h0c0,.07-.07.07-.36.07a.93.93,0,0,1-.36-.07c0-.44.08-.94.08-1.52v-1.58a.07.07,0,0,1,.07-.07,9.83,9.83,0,0,0,1.08.14ZM93.74,147V146c0,.07.08.07.15.07a4.29,4.29,0,0,1-.15.87Zm0-1.73c.08.21.22.43.36.72a5.1,5.1,0,0,1,.36,1l.51-.36a3.53,3.53,0,0,0-.36-1c-.15-.36-.36-.65-.51-.94l-.36.22v.36Zm0-1.44v-.65h.15l-.07-2.88h-.08v-.65c.22-.07.51-.07.65-.14a.07.07,0,0,1,.07.07v2.09l.08,1.08a4.58,4.58,0,0,0,.07,1,.07.07,0,0,1-.07.07Zm0-4.18v.65l-1,.07v-.65l.79-.07Zm0,2.81h0l-.36.43a4.44,4.44,0,0,0-.5-.43.39.39,0,0,1-.14.29v-1.08l.07.07a4.18,4.18,0,0,0,.29-.5h-.36v-.44l.57-.07h.07l.29.07a3.4,3.4,0,0,1-.43,1.23c.14.14.36.29.5.43Zm0,.72v.65h-.36l-.64.07v-.65l1-.07Zm0,1.73v.36c-.07-.07-.14-.22-.21-.29l.21-.07Zm0,1.15V147l-.07.07c-.07.14-.21.21-.5.29h-.43v-.72h.36a.16.16,0,0,0,.14-.15c.07-.07.07-.29.07-.65a.43.43,0,0,0,.43.22Zm-1-1v-.86a5.9,5.9,0,0,1,.64.57l-.43.51-.21-.22Zm0-4.46v-.15a.07.07,0,0,0,.07.08h-.07v.07Zm0-.94c0-.07.07-.21.07-.29s.07-.14.14-.21H93c0-.07-.07-.15-.28-.22h0Zm0-.72v.72l-.08.07h.08v.65h-.29l-1.37.07.07,2.88.65-.07c0-.07-.14-.21-.22-.29a2.39,2.39,0,0,0,.94-.79c-.14-.07-.29-.21-.43-.29-.22.22-.36.44-.51.58a.83.83,0,0,0-.36-.36l.44-.43a1.87,1.87,0,0,0-.29-.15c-.07-.07-.07-.07-.15-.07l.36-.43c0,.07.08.07.15.14s.14.08.21.08c.15-.29.22-.58.36-.87.08,0,.22.07.29.07h.15v.15h-.08v.21h.08v.44h-.29c-.07.07-.07.14-.15.21.15.07.22.07.29.15l.15.07v1.08c-.22.14-.44.36-.65.5h.65v.65H92.3c.15.07.29.22.44.29V145a7.21,7.21,0,0,0-1.08-.79l.28-.36-.64.07c-.22,0-.44.07-.65.07h-.07a1.68,1.68,0,0,0,0-.86v-1.3c0-.64-.08-1.22-.08-1.65v-.43h.72l.72-.08.22-.86c.22,0,.36.07.58.07Zm0,7.71H92.3c-.07,0-.07-.08-.07-.22v-.79a2.26,2.26,0,0,1,.15-.72c0-.07-.08-.07-.29-.15a1,1,0,0,0-.51.08v1.65c.08.36.08.58.22.72s.29.15.58.15h.36v-.72ZM90.5,147l.22.14a1.56,1.56,0,0,0,.43-.93,1.41,1.41,0,0,0,.15-.58c0-.07.07-.14.14-.22v-.14a.83.83,0,0,0-.22-.14.89.89,0,0,0-.43-.15,6.65,6.65,0,0,1-.29,1.44V147Zm0-3.17h0v0Zm0-4.1v.43c0-.15-.07-.22-.07-.36v-.07Zm0,3.88v.22l-.07.07v-.36l.07.07Zm0,2.81V147h-.07v-.51l.07-.07Zm-.07-6.69v0Zm0,3.81v.36h-.07v-.65c0,.08.07.15.07.29Zm0,2.31h0l-.07.07v-.58a1.29,1.29,0,0,1,.07.51Zm0,.64V147l-.07-.07v-.29A.29.29,0,0,1,90.43,146.52Zm-.07-3.24v.65l-.36.22c-.07-.15-.07-.36-.14-.51h-.51l.07,2v1c0,.36.08.72.08.93s-.15.07-.36.07h-.36v-1.94l-.08-1.87a1.66,1.66,0,0,0-.5.07h-.07v-.79h0c.14-.22.29-.51.36-.65a1.63,1.63,0,0,0-.36-.58v-1.08A16.48,16.48,0,0,0,88.7,139a1.54,1.54,0,0,1,.44.28c.14.08.21.15.21.22a.15.15,0,0,1-.14.14A1.21,1.21,0,0,0,89,140a7,7,0,0,1-.5,1.23,4.89,4.89,0,0,0,.36.5c.29-.65.5-1.22.72-1.66a1.81,1.81,0,0,1,.43.29c.14.15.22.22.14.29s-.07.07-.07.14-.14.08-.21.22c-.44.86-.8,1.51-1.08,2l.86-.08c-.07-.14-.14-.43-.29-.72h0l.43-.28a2.51,2.51,0,0,1,.44,1c.07.15.14.22.14.36Zm0,2.09a10.52,10.52,0,0,0-.36-1.15l-.5.22a3.93,3.93,0,0,1,.28.86,4.71,4.71,0,0,1,.15.86l.43-.21v-.58Zm0,1.3c-.07.07-.07.14-.14.21l.14.08v-.29Zm-2.23.21c.07-.28.21-.64.29-1.08a2.48,2.48,0,0,1,.07-.64c0-.15.07-.22.07-.29s.07-.07.07-.15-.07-.14-.21-.14a.6.6,0,0,0-.29-.14Zm0-6.12v1.08a6.93,6.93,0,0,0-.65-.72l.36-.57c.07,0,.14.14.29.21Zm0,2.31v.79a4.45,4.45,0,0,0-.51.07l-.07-.79.58-.07Zm0,1.37v2.44h0a4.52,4.52,0,0,0-.58-.28,7,7,0,0,0,.43-2.16Zm-4.47,2.23V146l1.66-.22-.07-.57-1.59.21v-.64l1.52-.22V144l-1.52.22v-.72l1-.14c.51-.08.87-.15,1.15-.22.08,0,.08,0,.08.07,0,.43,0,1.08.07,1.87l.21,1.88a1.08,1.08,0,0,1-.07.5.55.55,0,0,1-.29.29,2.87,2.87,0,0,1-1.29.29,2.5,2.5,0,0,0-.29-.65,3.12,3.12,0,0,0,1-.15c.07,0,.14,0,.14-.07a.1.1,0,0,0,0-.14v-.58l-1.73.22Zm0-3.75v-.79h.22a8.35,8.35,0,0,1,1-.14,7.12,7.12,0,0,0-.65-.51c-.07,0-.07,0-.07-.07l.36-.36-.87.15v-.8l1.44-.14.72-.14a5,5,0,0,0,.8-.15,2,2,0,0,0,.07.43v.44a4.58,4.58,0,0,0-.94.07l-.86.14a7.58,7.58,0,0,1,1.87,1.44l-.58.58-.5-.51C85,142.71,84.31,142.78,83.66,142.92Zm0-2.52v.8h-.07l-.93.14a8.13,8.13,0,0,1-.58,1.08c.36-.07.86-.14,1.58-.29v.79c-1.22.22-2.3.44-3.31.58l-.14-.79a1.42,1.42,0,0,0,.5-.07,1.64,1.64,0,0,1,.58-.08c.14-.36.36-.72.5-1.08l-1,.15a5.13,5.13,0,0,0-.93.14,2.08,2.08,0,0,0-.07-.43v-.43a11.79,11.79,0,0,0,1.51-.15l1.51-.21v-.43c0-.15-.07-.29-.07-.44a1.24,1.24,0,0,1,.5-.07c.29,0,.36,0,.36.07a.68.68,0,0,0-.07.36v.44l.14-.08Zm0,3.1v.72l-1.72.29v.57l1.65-.28h.07v.64h0l-1.65.22.07.58,1.58-.22v.65l-1.51.21.07.72a2.72,2.72,0,0,0,.08.8,1.13,1.13,0,0,1-.44.07c-.21.07-.36.07-.43,0,0-.58,0-1.37-.07-2.31L81.22,145a5.72,5.72,0,0,0-.15-1.15.07.07,0,0,1,.07-.07,7.8,7.8,0,0,0,1.16-.07l1.15-.22Zm-5.61,5.69v-.65h.14a5.72,5.72,0,0,0,.15-1.15l-.29.07V147l.5-.15-.07-.65-.43.08v-.51l.21-.07.8-.22h0c0,.29.07.58.07.87l.14.86-.79.22.5.07a2.43,2.43,0,0,1-.21.72c0,.07-.07.14-.07.22l.57-.15a1.76,1.76,0,0,0,.58-.14,1.32,1.32,0,0,0,.07.36c0,.21.07.29,0,.36A5.1,5.1,0,0,0,79,149l-.93.22Zm0-3.89v-.58l.21-.07a4.23,4.23,0,0,0,.94-.29c.07.08.07.15.07.36a1.32,1.32,0,0,1,.07.36,5.23,5.23,0,0,0-.93.15l-.36.07Zm0-1v-.57h0l.29-.08-.15-.5h-.14v-.5l.07-.08-.07-.5h0v-.58l.5-.14.22,1.37c.07.57.14,1,.21,1.37v.07a5.53,5.53,0,0,0-.86.14Zm0-2.81v.58l-.36.07v-.57l.36-.08Zm0,1.16v.5l-.29.07.07.58.22-.07v.57l-.36.07v-1.65l.21-.07Zm0,2.08v.58l-.36.07v-.57l.36-.08Zm0,1v.51l-.36.07v-.51l.36-.07Zm0,1.23v.5l-.36.07V147l.36-.07Zm0,1.58v.65H78l-.29.07v-.65Zm-.36-7v.57h-.07l.07.58h0v1.65l-.36.08-.15.07v-.58l.22-.07v-.29l-.07-.29-.15.08v-.58h.08l-.08-.5h0v-1.44a.26.26,0,0,1,.22-.08c.14,0,.22,0,.22.08s-.08.21-.08.36l.08.36Zm0,3.24v.57l-.22.07c-.14,0-.21.08-.29.08v-.65h.22l.29-.07Zm0,1v.51l-.15.07-.36.07v-.57a.39.39,0,0,0,.29-.08Zm0,1.23v.5h0l-.51.15v-.58l.51-.07Zm0,1.58v.65l-.51.14v-1.58a8,8,0,0,1,.44.79l-.08.07Zm-.51-7.77v1.44H77l-.22.07.07.5.36-.07v.58l-.28.07.07.5h.21v.58l-.72.14c-.07,0-.14,0-.14.07v-.64h.22v-.29l-.08-.29-.14.07V143h.07l-.07-.29v-.29h0V141h.07c.15,0,.29,0,.29.07a.82.82,0,0,0-.07.36l.07.36.43-.07-.07-.43a2.66,2.66,0,0,1-.07-.43Zm0,4v.65l-.86.21v-.65h.14l.72-.21Zm0,1v.57l-.5.15.07.64.43-.14v.58H77l.14.14v1.58H77l-.65.22V149l.14-.07.58-.14c-.14-.22-.29-.51-.43-.72l.43-.36-.72.21V146A5.35,5.35,0,0,0,77.18,145.88Zm-.86-4.9v1.44l-.43.14.07.51.36-.07v.57l-.29.07.07.51.22-.07v.64a1.48,1.48,0,0,0-.65.15H75.6a2.55,2.55,0,0,0-.07-.65v-2.16l.57-.14v-.44c-.07-.07-.07-.21-.14-.43a.66.66,0,0,0,.36-.07Zm0,4.1v.65l-.72.22a.73.73,0,0,0-.07-.29v-.43c.21-.07.5-.07.79-.15Zm0,.94v1.87h-.07L76.1,147c-.07-.29-.07-.58-.14-.87v-.07a.66.66,0,0,0,.36-.07Zm0,2.95v.65c-.14,0-.22.07-.29.07s-.07-.14-.07-.36a1,1,0,0,1-.07-.36Zm-.79.65V149l.07.15v.43A.07.07,0,0,1,75.53,149.62Zm0-7.56v2.16a1.24,1.24,0,0,0-.07-.5v-.22l-.22-1.37.29-.07Zm0,3.17v0Zm0,3.74-.43-3.31.43-.07-.22-1.37-.43.07-.36-2.52-.36.07v1.73l.14.87-.14.07v.57l.72-.14.07.5-.79.15v.65l.36-.08.07.51-.43.14v.58l.5-.15.08.58-.58.14v.58l.65-.14.14.86c0,.07,0,.14-.07.14s-.36.08-.5.08a2.55,2.55,0,0,1,.28.64,2.75,2.75,0,0,1,.44-.14c.14-.07.28-.07.36-.14s.07-.15.07-.22Zm-1.37-7.13v1.66l-.22.07v-.5l.15-.07-.07-.51-.08.07v-.64l.22-.08Zm0,2.67v.57l-.22.08v-.65Zm0,1.08v.65l-.22.07v-.65l.22-.07Zm0,1.22v.58h0l-.22.07v-.65h.22Zm0,1.15v.58l-.22.07V148l.22-.08Zm-.22,2.38v-.86a4,4,0,0,0,.15.79A.25.25,0,0,0,73.94,150.34Zm0-8.42v.64l-.43.08V142l.43-.07Zm0,1.15v.5l-.21.07.07.44.07.43h.07v.65l-.43.07v-2.09l.43-.07Zm0,2.59v.65l-.43.07v-.65l.36-.07Zm0,1.15v.65l-.28.07.07.51h.21v.57l-.14.07.14.8v.86h-.21a.37.37,0,0,1-.22.07v-4l.07.58ZM73.51,142v.65l-.65.14.15.94.14,1,.36-.07-.21-1.44.21-.07v2.09l-.72.14.07.51.65-.15v.65h0v4h-.07c-.07-.29-.07-.65-.14-1.08l-.15-1.08-.29-2.09-.5.15-.22-1.37.51-.14-.22-1.23a11.9,11.9,0,0,0-.21-1.29v-.08a4.62,4.62,0,0,0,1.15-.21Zm-9.36,9.21v-.36c.07.08.07.22.15.29a.29.29,0,0,1-.15.07Zm0-4.6c.07.14.07.28.15.28.5-.21,1-.43,1.44-.57l1.51-.51.29,1.08-1.16.44c-.5.14-.86.21-1.15.28v.08c.07.28.15.57.29,1l.22,1c.14.79.28,1.51.36,2.09a3.14,3.14,0,0,0,.43-.14c.29-.08.36-.15.43-.15a13.06,13.06,0,0,1-.43-1.65l-.36-1.59,1.51-.5.5,2.16.29,1.08a7.84,7.84,0,0,1,.15,1.08c.07.07.21,0,.43-.07s.43-.15.43-.22c-.14-.58-.36-1.3-.58-2.09l-.5-2.23,1.73-.5.5,2.23v.14c-.07,0-.07.07-.14.07s-.58.22-1,.36a3.49,3.49,0,0,1,.43.72c.36-.14.58-.21.72-.28a2.56,2.56,0,0,0,.58-.29l.21-.43a1.47,1.47,0,0,0-.07-.51L71,147.39c-.14-.58-.21-1.08-.29-1.51a.07.07,0,0,0-.07-.08c-.36.15-.72.29-1.15.44l-1.22.43L68,145.59l1.58-.51a8.73,8.73,0,0,1,1.51-.43,2,2,0,0,0-.07-.5c-.07-.29-.07-.43-.14-.51a6.41,6.41,0,0,1-1.51.58l-1.52.5-.14-.5a2.06,2.06,0,0,1,.07-.65c-.07-.07-.14-.07-.43,0s-.36.07-.58.15l.22.64.14.65-1.51.51c-.57.14-1,.28-1.44.36Zm0-.72v.57a2.36,2.36,0,0,1-.07-.5l.07-.07Zm0,5v.36c-.07.08-.14.08-.29.15a.72.72,0,0,1-.36.14c0-.07-.07-.14-.07-.21l-.07-.29-1.51.72v-.94l1.29-.57-.72-2.09-.57.29v-.94c.36-.14.72-.36,1.08-.5H63a8.61,8.61,0,0,0,.22,1.08l.36,1.08c.21.64.43,1.22.57,1.72Zm-2.3,4v-1.66c.21.58.36,1,.5,1.37,0,.07-.14.14-.36.21A.21.21,0,0,1,61.85,154.88Zm0-7.42v.94l-.36.14-.94.43.65,2.09.65-.29v.94l-.43.14.43,1.23v1.8c-.22.07-.29.14-.29.07-.14-.36-.22-.87-.43-1.37l-.43-1.37-1.52.65V152l1.3-.58-.65-2.16-.65.29v-.87l.36-.21-.21-.72a.89.89,0,0,0-.15-.43v-.44a1.08,1.08,0,0,1,.44-.14c.28-.14.43-.14.43-.07a1.51,1.51,0,0,0,0,.79l.21.72,1.37-.58ZM57.53,156c.07-.08.14-.15.21-.15s.15.07.22.29a1,1,0,0,1,.07.36,1.62,1.62,0,0,0-.5.29V156Zm1.65-9.08v.44c0-.15-.07-.22-.14-.36a.24.24,0,0,0,.14-.08Zm0,1.8v.87l-.28.14-1,.43.65,2.09.64-.21v.86l-.36.14.08.29c0,.07.07.15.07.22s-.07.14-.36.21a.72.72,0,0,1-.36.15c-.07-.29-.15-.65-.29-1.08l-.29-1-.14-.5V149.4a3.23,3.23,0,0,0,.72-.36Zm-5,9.15.14-.07-.14-.29v-1.66l1-.57h-.57l.07-.15-.5.29v-.58l.57-.28c.29-.22.72-.44,1.15-.72A.29.29,0,0,1,56,154l.14.29a1.22,1.22,0,0,1-.36.14l-.36.22a7.51,7.51,0,0,1,1.37.14l-.22.65c-.14-.07-.36-.07-.57-.14-.29.21-.8.5-1.44.86H54.5l.15.36,1.08-.57,1.08-.65a.77.77,0,0,1,.14.29.53.53,0,0,1,.07.28,10.36,10.36,0,0,0-1.08.58l-1.08.58.15.36,1.44-.8a10.57,10.57,0,0,0,1.08-.64v.79c-.36.14-.65.29-1.08.5l-1.51.87-.72.43v-.72Zm3.31-8.43v1.88l-.22-.58c-.14-.43-.29-.79-.36-1v-.14a2,2,0,0,0,.58-.15Zm-3.31,5,1.72-1,.15.36c.07.14.07.21.14.36a.69.69,0,0,0,.36-.15,1.93,1.93,0,0,0,.29-.21,3.45,3.45,0,0,0-.29-.58l-.21-.65-2.16,1.23v.64Zm0-1v-.51l.5-.29-.14-.43-.36.22v-.51l.86-.5.22.65a4.16,4.16,0,0,1,.28.57v.08c-.36.14-.72.36-1.15.57l-.21.15Zm0-1.88a7.05,7.05,0,0,1,1-.5,1,1,0,0,0-.07-.36c-.07-.14-.14-.22-.14-.29-.29.22-.58.36-.79.51v.64Zm0-1.08v-.57c.28-.22.64-.43.93-.65.07,0,.15.14.22.29a1,1,0,0,1,.07.36C55.08,150.05,54.72,150.27,54.22,150.48Zm-2.38,9.44-.14-.29a1.17,1.17,0,0,1-.08-.36c.36-.15.8-.43,1.37-.72l1.23-.72v.72l-.87.43c-.5.29-1,.65-1.51.94Zm2.38-2.45v-1.66l-1,.58a1.41,1.41,0,0,0,.14-.58l.65-.36.22-.07v-.58l-.58.36-2.23,1.16a.7.7,0,0,0,.07.28.83.83,0,0,0,.14.22,3.3,3.3,0,0,1,.51-.29l.5-.29c0,.08-.07.15-.07.29s-.07.22-.07.29l-1,.58.22.43c.14-.07.36-.22.72-.43.64-.36,1.08-.58,1.44-.8L54,157l-1,.51c-.43.29-.79.43-1,.57a.65.65,0,0,0,.08.29c.07.15.07.29.14.29.29-.22.65-.43,1-.65l1-.57v.07Zm0-7.56v.57l-.22.15-1.37.79.15.36,1.15-.65a.9.9,0,0,1,.29-.21v.64a.54.54,0,0,0-.29.15l-1.3.72-1.29.72c-.36.21-.8.5-1.23.79l-.14-.29a1.1,1.1,0,0,1-.07-.29c.28-.14.72-.36,1.08-.57l1.15-.65-.15-.36-1.44.79a14.91,14.91,0,0,0-1.29.79.86.86,0,0,1-.15-.28,1.33,1.33,0,0,1-.14-.36,12.53,12.53,0,0,0,1.44-.65l1.37-.79-.15-.22a.58.58,0,0,0-.07-.29l.43-.21c.22-.15.36-.15.36-.08v.22l.08.22,1.36-.8.44-.21Zm0,2v.51l-3,1.65.15.36,1.65-.86,1.16-.65v.51l-.94.5-2.3,1.3-.22-.58c-.14-.29-.22-.5-.29-.65v-.07a23.07,23.07,0,0,0,2.23-1.15l1.52-.87Zm0,1.88v.64l-3,1.66.15.36c.07.14.07.22.14.36a2.3,2.3,0,0,1-.29.22.57.57,0,0,1-.36.14,1.73,1.73,0,0,0-.21-.65L50.4,156l3-1.66Z"/><path class="cls-9" d="M137.16,158.48v-2.09a6.85,6.85,0,0,0,.72.36v.07a2.65,2.65,0,0,0-.29.65l-.29.72a.37.37,0,0,0-.14.29Zm0-2.52h0c.5.28.86.5,1.22.72,0,.07,0,0,.08,0,.07-.29.21-.65.36-1.16l.5-1.08-2.16-1.15v.65l1.37.72-.51,1.15-.79-.43-.07-.07V156Zm0-.65v-.65a3.17,3.17,0,0,0,.43-.5c.15.14.22.28.36.43s.15.21.07.21H138a.07.07,0,0,0-.07.08c-.07,0-.07,0-.14.07l-.15.14a1.62,1.62,0,0,0-.36.29l-.07-.07Zm0-2.52v-.65l.07.07.94.51c-.22-.51-.43-1-.58-1.44l-.43.21v-.86a.7.7,0,0,0,.36-.15l.58.36a11.51,11.51,0,0,0,.93,1.95,10.79,10.79,0,0,0,1.3,1.65,4.14,4.14,0,0,0-.65.51,15.45,15.45,0,0,1-1.3-1.87l-.14.36Zm0-2.16v.86c-.14,0-.29.07-.5.07v-.79a1.05,1.05,0,0,0,.5-.14Zm0,1.51v.65l-.14-.07-.36-.15v-.72l.5.29Zm0,1.15v.65l-.29-.14-.21.5V153l.5.29Zm0,1.37v.65l-.36-.36c.14-.07.22-.22.36-.29Zm0,.65-.5-.22v.65l.5.22v-.65Zm0,1.08v2.09c-.14.36-.29.79-.43,1.08h-.07V157.4h.07l.21-.44-.28-.14v-.65l.21.07C136.94,156.32,137.09,156.32,137.16,156.39Zm-.5-5.62v.79a.42.42,0,0,1-.29.08v-.72c.07-.08.21-.08.29-.15Zm0,1.08v.72l-.29-.21v-.65l.29.14Zm0,1.15v1.3l-.22.65.22.14v.65l-.29-.22v-2.66l.29.14Zm0,3.17v.65l-.29-.22V156l.29.21Zm0,1.23v2.16c-.08,0-.15-.08-.29-.15h0v-1h0l.14-.43-.14-.14v-.65Zm-.29-6.48v.72h-.07l.07.07v.65l-.58-.29.22-.36a4.26,4.26,0,0,1-.94.07v-.72a2.81,2.81,0,0,1,.72-.07,1.65,1.65,0,0,1,.58-.07Zm0,1.94a9.88,9.88,0,0,1-1.3-.79v.72l.51.29.79.36v-.58Zm0,.72v1.94l-.36-.21-.94-.51v-.57l.79.43.51-1.08Zm0,2.38-.51-.29-.79-.43v.64l1.3.72V156Zm0,1.22v.65l-1.15-.65h-.15v-.65l.36.15.94.5Zm0,1.22-1.3-.64v.64l1,.58v.07c0,.07,0,.07-.07.07v.08a1.54,1.54,0,0,0,.36.21v-1Zm-1.3-4.24v-.65h0V153l.58.15a4.92,4.92,0,0,1-.07,1.08Zm0-3.1v.72h-1.22a3,3,0,0,0-.07-.79c.43,0,.86.07,1.29.07Zm0,1a2.23,2.23,0,0,1-.5-.36c-.07,0-.07,0-.15.07-.07.29-.21.65-.36,1.15l-.5,1.08,1.51.79v-.57l-.72-.43.51-1.16.21.15v-.72Zm0,1.44v.65H135a1,1,0,0,0,.07-.51v-.14Zm0,1.73v.64l-.79-.43-.22.51,1,.57v.65l-1.22-.72-.22.5,1.44.8v.64l-1.65-.93-.08.14v.15a2,2,0,0,0-.36-.15c-.21-.14-.36-.21-.36-.29a10.89,10.89,0,0,0,.65-1.36l.29-.72a2.2,2.2,0,0,1,.29-.65v-.07a8.42,8.42,0,0,0,1,.57l.21.15Zm-6.33-1.73v-.72l1.8.86.14-.5-1.87-.94h-.07v-.65l2.16,1.08.14-.5-1.87-.94-.43-.21v-.65l2.52,1.22.21-.5-1.94-.86-.79-.44v-.64l1,.5,1.3.58c.5.21.94.43,1.37.57v.07a2.71,2.71,0,0,0-.36.94l-.36.94c-.29.79-.51,1.36-.65,1.87,0,.07,0,.07-.07,0-.22-.15-.43-.22-.65-.36l-.72-.29a14.36,14.36,0,0,1,1.8,1.87l-.79.29c-.58-.72-1.23-1.44-1.87-2.09l.64-.21-.64-.29Zm0-4.9,1.29.65a14.41,14.41,0,0,1,2.16,1.08.07.07,0,0,0,.07-.07c.08-.29.22-.58.36-1l.36-1-2.3-1.08-1.15-.57a7,7,0,0,1-.79-.44v1.23l.07-.36,3.24,1.51-.29.79-1.58-.79-1.44-.72Zm-3.46-2.3c.22.07.36.07.58.14a1.76,1.76,0,0,1-.08.43,2.75,2.75,0,0,1-.14.36c-.07-.07-.22-.07-.36-.14v-.79Zm0,2.09c.07.07.14.07.22.14-.08.07-.15.07-.22.14v-.28Zm3.46-2.24v1.23l-.15.36.15.07v.79l-1.08-.5.36-1c.14-.43.28-.72.36-1,0-.07,0-.07.07-.07a.37.37,0,0,0,.29.14Zm0,3-.22-.15a9.82,9.82,0,0,1-1.3-.65h-.07c-.14.51-.36,1.16-.65,2l-.28.93c-.08,0-.08.08-.08.15a6.61,6.61,0,0,1-.36.79h.08a1.34,1.34,0,0,1,.57.29l.65.29a4.92,4.92,0,0,1-1.08.07c-.22,0-.43-.07-.72-.07v.79c.36,0,.72.07,1.15.07s.87-.07,1.23-.07l-.36-.65,1.44.65v-.72l-2-.94.22-.5,1.8.86v-.65l-1.66-.72.22-.5,1.44.65v-.65l-1.23-.58.15-.5,1.08.5Zm-7.35-1.73.22.21.36-1.51a3.42,3.42,0,0,1-.58.36V145l.79.29.22-.79-1-.22v-.72c.51.15.94.22,1.44.36a11.11,11.11,0,0,0,2.31.36,2.17,2.17,0,0,1,.14.65c.07.22,0,.29,0,.29s-.07,0-.14-.07-.15-.15-.22-.15c-.65-.07-1.22-.21-1.8-.29l-.22.8,1.44.5c.36.07.65.22.94.29v.79c-.14-.07-.43-.14-.72-.29l-1.08-.36a4.49,4.49,0,0,0,.86,1.15c.36.29.65.58.94.8v.28a1.29,1.29,0,0,0-.43.44,7.28,7.28,0,0,1-1.23-1.3,6.41,6.41,0,0,1-.93-1.51l-.43,1.58-.51-.21-.36.36v-.65Zm0,.93V149l.29.08,1,.36a3.23,3.23,0,0,1-1.08.72l-.22-.08v.94h.15a19.72,19.72,0,0,1,2.08,1.73l.58-.58a17.37,17.37,0,0,0-1.87-1.51,3.5,3.5,0,0,0,1.08-.94l.79.22c.29.07.5.22.79.29a1.26,1.26,0,0,1,.07-.36c.08-.22.15-.36.08-.43-.29-.08-.65-.15-.94-.22l-1-.36-1.8-.58Zm3.89,4.4v.79c-.07,0-.14-.07-.22-.07-.14-.36-.21-.65-.28-.8C124.92,152.64,125.14,152.72,125.28,152.72Zm-7.42-1.88a2.8,2.8,0,0,0-.07-.79,8.77,8.77,0,0,0,2.81.36l-.94-.65-.21.15-.58-.43c.22-.22.58-.51,1-.94l-.86-.29c-.22-.07-.51-.14-.8-.21a1.17,1.17,0,0,1,.08-.44c.07-.21.07-.36.14-.36.22.08.58.22,1,.36l1,.36.14-.14a4.46,4.46,0,0,1,.58-.58l.21.15V148h0c-.07.07-.14.14-.14.21l.14.07V149l-.72-.21a3.17,3.17,0,0,1-.5.43c.36.29.79.5,1.22.86v.94a7.69,7.69,0,0,1-3.53-.22Zm3.53-4.39a3.34,3.34,0,0,1-.93.36,6.43,6.43,0,0,1-1.66.29,7.18,7.18,0,0,0-.22-.79,7.87,7.87,0,0,0,1.37-.15,3.32,3.32,0,0,0,1.3-.43l-1.08-.36c-.36-.14-.72-.21-1.08-.36a1.32,1.32,0,0,1,.07-.36c.07-.29.14-.36.14-.43a10.16,10.16,0,0,0,1.44.58l.65.21v1.44Zm0-2.16v-.72a8,8,0,0,0-1.22-.36,1.83,1.83,0,0,1-.07.65Z"/><path class="cls-5" d="M79.49,6.7A33,33,0,1,1,64,50.91,33,33,0,0,1,79.49,6.7Z"/><path class="cls-5" d="M106.34,61.28a27.76,27.76,0,1,1,13-37.16A27.82,27.82,0,0,1,106.34,61.28Z"/><path class="cls-12" d="M64.94,30.53l.36,5.19.44,8.71,6.12,9,4.68,5.47,5.25,2.59L87.55,64l7.71.65L109,62.14s6.19-5.47,6.91-6.19,5.11-10.51,5.26-11C107.28,57,70.2,50.48,64.94,30.53Z"/><polygon class="cls-13" points="103.25 13.83 100.15 22.54 101.16 22.97 104.9 13.97 103.25 13.83"/><polygon class="cls-13" points="69.48 23.69 70.2 25.49 79.56 19.59 83.23 11.74 82.15 11.31 78.7 12.68 73.94 16.13 69.19 21.96 69.48 23.69"/><polygon class="cls-13" points="70.06 25.27 68.47 40.03 67.03 44.43 69.48 50.12 71.14 52.49 73.15 55.3 73.94 56.16 79.06 55.73 79.49 54.44 77.11 45.15 69.91 39.31 71.78 23.55 70.06 25.27"/><polygon class="cls-13" points="78.84 20.02 87.91 26 89.14 25.06 79.7 18.8 78.84 20.02"/><polygon class="cls-13" points="87.77 24.99 86.98 38.02 99.22 43.71 108.14 33.7 101.09 21.96 87.77 24.99"/><polygon class="cls-13" points="75.67 44.14 87.34 36.8 87.84 38.02 77.11 45.15 75.67 44.14"/><path class="cls-13" d="M82.73,11.52,94,8.86l.36-1.22,4,.5,4.68.79s3,1.59,3.17,1.73,5.26,2.59,5.4,2.88,2.31,2.3,2.31,2.3l-.58.8L104,14.76,97.34,9.44,82.08,13.25Z"/><polygon class="cls-13" points="107.14 32.55 116.86 34.13 117.5 35.72 107.28 33.84 107.14 32.55"/><polygon class="cls-13" points="120.02 25.06 116.64 34.63 119.23 43.06 121.03 46.59 122.62 36.94 122.11 32.84 120.82 26.93 120.02 25.06"/><polygon class="cls-13" points="98.06 42.84 101.3 58.25 102.74 57.96 99.43 42.91 98.06 42.84"/><polygon class="cls-13" points="79.49 54.44 92.74 59.84 90.94 60.84 78.55 55.59 79.49 54.44"/><polygon class="cls-13" points="88.34 63.44 91.22 60.27 101.02 55.66 110.3 55.95 113.76 57.6 113.33 57.53 109.51 60.41 103.68 63.22 98.14 64.73 90.5 64.95 88.34 63.44"/><polygon class="cls-5" points="71.42 26.57 72.36 27.36 69.91 39.31 71.42 26.57"/><path class="cls-13" d="M106.78,63.36a28.84,28.84,0,0,1-12.53,3V64.08a27.79,27.79,0,1,0,0-55.58V6.56A29.59,29.59,0,0,1,120.6,23.4a30.12,30.12,0,0,1,3,11.74v2.52A30.07,30.07,0,0,1,106.78,63.36Zm-12.53,3A30,30,0,0,1,66.74,49.54,29,29,0,0,1,63.79,37.8V35.28A29.94,29.94,0,0,1,80.71,9.51,29,29,0,0,1,94.25,6.56V8.5a27,27,0,0,0-12.1,2.81,27.75,27.75,0,0,0,12.1,52.77Z"/><path class="cls-4" d="M107.5,65A32.12,32.12,0,0,1,94,68.19V65.88a29.67,29.67,0,0,0,26.79-41.76A29.09,29.09,0,0,0,94,7.28V4.61A31.54,31.54,0,0,1,122.62,22.4a31.13,31.13,0,0,1,3.09,12.45v2.23A32.27,32.27,0,0,1,107.5,65ZM94,68.19A31.83,31.83,0,0,1,64.87,50.33,31.42,31.42,0,0,1,61.7,37.88V35.43A32.58,32.58,0,0,1,94,4.61V7.28a29.5,29.5,0,0,0-12.89,3A29.24,29.24,0,0,0,94,65.88Z"/><polygon class="cls-5" points="114.7 70.56 112.54 77.33 105.48 77.26 111.1 81.51 108.79 88.92 114.62 84.17 120.53 89.21 118.15 81.58 123.77 77.4 116.86 77.33 114.7 70.56"/><polygon class="cls-8" points="114.62 73.59 113.11 78.19 108.36 78.12 112.18 81.08 110.59 86.11 114.55 82.88 118.66 86.33 117 81.08 120.82 78.27 116.06 78.19 114.62 73.59"/><path class="cls-11" d="M116.06,81.87v-.51a.24.24,0,0,0,.08-.14c.07,0,.07-.07.07-.22s.07-.28.07-.57-.07-.58-.07-.72-.07-.15-.15-.15v-.5h.22l.22.22c0,.07.07.14.07.21s.07.22.07.29.07.43.07.65a3.64,3.64,0,0,1-.14,1.08C116.42,81.72,116.28,81.87,116.06,81.87Zm-2.88-2.81V81.8h-.43V80l-.21.21a.41.41,0,0,1-.29.15v-.58a1.62,1.62,0,0,0,.36-.29l.21-.43Zm2.88,0v.5h0c-.07,0-.14,0-.21.15v1.44q.11.21.21.21h0v.51h0a.54.54,0,0,1-.36-.15,1,1,0,0,1-.21-.28c0-.15-.07-.29-.07-.44v-.57a2.18,2.18,0,0,1,.14-1.08.48.48,0,0,1,.5-.29Zm-1.29,0V81.8h-.43V80l-.22.21c-.07.07-.14.15-.22.15v-.58c.15-.07.22-.22.29-.29s.15-.29.22-.43Z"/><path class="cls-11" d="M100.08,161.36v-.87h0a.4.4,0,0,0,.36-.21.85.85,0,0,0,.22-.58.74.74,0,0,0-.22-.58.4.4,0,0,0-.36-.21V158h0c.14,0,.22-.07.36-.21a.62.62,0,0,0,.14-.43,1.08,1.08,0,0,0-.14-.44.4.4,0,0,0-.36-.14v-.94a1.41,1.41,0,0,1,1.15.44,1.27,1.27,0,0,1,.43,1,2.1,2.1,0,0,1-.14.65,1.75,1.75,0,0,1-.36.43,1.86,1.86,0,0,1,.5.58,2,2,0,0,1,0,1.51,1.25,1.25,0,0,1-.36.51,1.11,1.11,0,0,1-.5.28,2,2,0,0,1-.72.08Zm0-5.48v.94h0c-.14,0-.29,0-.36.14a1.08,1.08,0,0,0-.14.44.62.62,0,0,0,.14.43c.07.14.22.14.36.21v.87h0a.63.63,0,0,0-.43.21,1.16,1.16,0,0,0-.15.58.85.85,0,0,0,.22.58.4.4,0,0,0,.36.21v.87a3.42,3.42,0,0,1-1-.15,1.67,1.67,0,0,1-.57-.65,2.42,2.42,0,0,1-.15-.86,2.31,2.31,0,0,1,.15-.79,1.3,1.3,0,0,1,.57-.51.72.72,0,0,1-.43-.36,1.2,1.2,0,0,1-.14-.72,1.3,1.3,0,0,1,.5-1.08,1.47,1.47,0,0,1,1-.36Zm-3.89,5.48v-.87h.07a.36.36,0,0,0,.36-.29,1.31,1.31,0,0,0,.15-.64,1.32,1.32,0,0,0-.15-.65.49.49,0,0,0-.43-.22h0v-.86a.68.68,0,0,1,.36-.07,1.06,1.06,0,0,1,.94.5,2,2,0,0,1,.43,1.3,1.91,1.91,0,0,1-.22.93,1.22,1.22,0,0,1-.57.65,1.6,1.6,0,0,1-.87.22Zm0-4.54v-.94h0a2.79,2.79,0,0,1,.87.15c.14.14.36.29.43.43a1.32,1.32,0,0,1,.29.72l-1.16.22a.65.65,0,0,0-.14-.44c-.07-.14-.14-.14-.29-.14Zm0-.94v.94a.43.43,0,0,0-.43.36,2.89,2.89,0,0,0-.14,1.08,1.75,1.75,0,0,1,.43-.36c0-.07.07-.07.14-.07v.86a.39.39,0,0,0-.36.22.89.89,0,0,0-.21.65.88.88,0,0,0,.21.64.69.69,0,0,0,.36.29v.87a1.8,1.8,0,0,1-.93-.22,1.94,1.94,0,0,1-.65-.86,4.84,4.84,0,0,1-.22-1.59,3.55,3.55,0,0,1,.51-2.16,1.45,1.45,0,0,1,1.29-.65Zm-4.1,5.48v-.87a.45.45,0,0,0,.43-.36,7.25,7.25,0,0,0,.22-1.15,1.18,1.18,0,0,1-.44.43c-.07,0-.14.07-.21.07v-.86a.6.6,0,0,0,.43-.22,1.45,1.45,0,0,0,.14-.64,2.14,2.14,0,0,0-.14-.72.6.6,0,0,0-.43-.22v-.94a1.6,1.6,0,0,1,.93.29,2,2,0,0,1,.65.87,4.73,4.73,0,0,1,.22,1.58,4,4,0,0,1-.43,2.09A1.69,1.69,0,0,1,92.09,161.36Zm-3-5.48v5.4H88v-3.52a1.53,1.53,0,0,1-.57.43,7.28,7.28,0,0,1-.65.36v-1.23a4.21,4.21,0,0,0,.94-.57,2.59,2.59,0,0,0,.5-.87Zm3,0v.94h0a.58.58,0,0,0-.43.22,1.31,1.31,0,0,0-.15.64,1.92,1.92,0,0,0,.15.72.58.58,0,0,0,.43.22h0v.86a2.93,2.93,0,0,1-.36.08,1.37,1.37,0,0,1-.94-.51,1.94,1.94,0,0,1-.36-1.29,2.22,2.22,0,0,1,.15-1,1.67,1.67,0,0,1,.57-.65,1.6,1.6,0,0,1,.87-.22Zm0,4.61v.87h0c-.36,0-.65,0-.79-.15a1,1,0,0,1-.51-.43,1.94,1.94,0,0,1-.29-.65l1.16-.21c.07.21.07.36.14.43a.56.56,0,0,0,.29.14Z"/><polygon class="cls-5" points="134.86 70.56 132.62 77.33 125.57 77.26 131.26 81.51 128.81 88.92 134.78 84.17 140.69 89.21 138.31 81.58 143.86 77.4 136.94 77.33 134.86 70.56"/><polygon class="cls-8" points="134.78 73.59 133.27 78.19 128.38 78.12 132.34 81.08 130.68 86.11 134.71 82.88 138.74 86.33 137.16 81.08 140.98 78.27 136.22 78.19 134.78 73.59"/><path class="cls-11" d="M133.27,79.06V81.8h-.43V80l-.22.21c-.07.07-.14.15-.21.15v-.58a1.62,1.62,0,0,0,.36-.29,1,1,0,0,0,.14-.43Zm1.66,0V81.8h-.43V80l-.22.21a.38.38,0,0,1-.29.15v-.58a1.41,1.41,0,0,0,.36-.29l.22-.43Z"/><path class="cls-11" d="M136.73,81.87h-1.3a1.92,1.92,0,0,1,.15-.72,2.61,2.61,0,0,1,.43-.79,1.12,1.12,0,0,0,.21-.44c.08-.07.08-.14.08-.28a.25.25,0,0,0-.08-.22c0-.07-.07-.07-.14-.07a.07.07,0,0,0-.07.07.56.56,0,0,0-.07.36l-.51-.07a4.37,4.37,0,0,1,.15-.58.6.6,0,0,1,.14-.29.66.66,0,0,1,.36-.07.56.56,0,0,1,.36.07,1.55,1.55,0,0,1,.22.29,1.29,1.29,0,0,1,.07.51,1.08,1.08,0,0,1-.07.5,2.62,2.62,0,0,1-.29.58c-.15.14-.15.21-.22.21s-.07.15-.07.22h.65Z"/></g></g></svg>